HIERARCHY
ROOT pelvis
{
  OFFSET 0 100 0
  CHANNELS 6 Xposition Yposition Zposition Zrotation Xrotation Yrotation
  JOINT pelvis_right_femur
  {
    OFFSET -10.78128 -3.44521 -0.5502486
    CHANNELS 3 Zrotation Xrotation Yrotation
    JOINT right_femur_tibia
    {
      OFFSET -0.8047443 -44.0398 -0.1307829
      CHANNELS 3 Zrotation Xrotation Yrotation
      JOINT right_tibia_foot
      {
        OFFSET 3.006224 -47.83518 -5
        CHANNELS 3 Zrotation Xrotation Yrotation
        End Site
        {
          OFFSET 0 -5 15
        }
      }
    }
  }
  JOINT pelvis_left_femur
  {
    OFFSET 10.78128 -3.44521 -0.5502486
    CHANNELS 3 Zrotation Xrotation Yrotation
    JOINT left_femur_tibia
    {
      OFFSET 0.8047443 -44.0398 -0.1307829
      CHANNELS 3 Zrotation Xrotation Yrotation
      JOINT left_tibia_foot
      {
        OFFSET -4.370144 -48.10324 -4.275266
        CHANNELS 3 Zrotation Xrotation Yrotation
        End Site
        {
          OFFSET 0 -5 15
        }
      }
    }
  }
  JOINT pelvis_spine1
  {
    OFFSET 0 6.468898 -3.129235
    CHANNELS 3 Zrotation Xrotation Yrotation
    JOINT spine1
    {
      OFFSET 0 23.15396 4.99043
      CHANNELS 3 Zrotation Xrotation Yrotation
      JOINT spine2
      {
        OFFSET 0 20.79997 -5.064912
        CHANNELS 3 Zrotation Xrotation Yrotation
        JOINT neck
        {
          OFFSET 0 14.38658 9.616178
          CHANNELS 3 Zrotation Xrotation Yrotation
          End Site
          {
            OFFSET 0 20 0
          }
        }
      }
      JOINT right_manubrium
      {
        OFFSET -5.722621 16.35077 3.967754
        CHANNELS 3 Zrotation Xrotation Yrotation
        JOINT right_clavicle
        {
          OFFSET -13.16364 1.694482 -4.693211
          CHANNELS 3 Zrotation Xrotation Yrotation
          JOINT right_humerus
          {
            OFFSET -28.5034 -0.3100689 -2.792744
            CHANNELS 3 Zrotation Xrotation Yrotation
            JOINT right_radius
            {
              OFFSET -25.15693 0.02248979 -1.271978
              CHANNELS 3 Zrotation Xrotation Yrotation
              End Site
              {
                OFFSET -15 0 0
              }
            }
          }
        }
      }
      JOINT left_manubrium
      {
        OFFSET 5.722621 16.35077 3.967754
        CHANNELS 3 Zrotation Xrotation Yrotation
        JOINT left_clavicle
        {
          OFFSET 13.16364 1.694482 -4.693211
          CHANNELS 3 Zrotation Xrotation Yrotation
          JOINT left_humerus
          {
            OFFSET 29.39168 -1.063119 -2.237045
            CHANNELS 3 Zrotation Xrotation Yrotation
            JOINT left_radius
            {
              OFFSET 24.59957 -0.9528479 0.9047498
              CHANNELS 3 Zrotation Xrotation Yrotation
              End Site
              {
                OFFSET 15 -0 -0
              }
            }
          }
        }
      }
    }
  }
}
MOTION
Frames: 13
Frame Time: 0.0416666666667
-1861.655 131.3663 1334.23 -5.950688 5.556954 -129.8816 5.293096 2.731184 -0.5613711 -0 12.39883 -0 -10.42253 -6.592771 -2.331526 0.9394402 -8.880868 -3.745427 -0 13.03512 -0 4.137961 -5.941129 13.51768 0.908061 -3.686645 6.387782 0.6044955 15.64797 -6.641788 1.112915 20.16801 2.323613 -0.3565938 -19.90641 4.327084 -3.458675 -29.25141 12.64763 92.97904 13.44997 -14.2036 -0 0 20.70651 -23.90054 14.16076 17.05198 2.076919 -24.50348 -8.384818 -89.82356 14.75342 29.29992 0 0 -22.25712 3.867564 13.30854 10.96207
-1866.601 131.3105 1330.996 -5.923733 5.585691 -130.1592 5.293096 2.731184 -0.5613711 -0 12.39883 -0 -10.42253 -6.592771 -2.331526 0.9394402 -8.880868 -3.745427 -0 13.03512 -0 4.137961 -5.941129 13.51768 0.908061 -3.686645 6.387782 0.6044955 15.64797 -6.641788 1.112915 20.16801 2.323613 -0.3565938 -19.90641 4.327084 -3.458675 -29.25141 12.64763 92.97904 13.44997 -14.2036 -0 0 20.70651 -23.90054 14.16076 17.05198 2.076919 -24.50348 -8.384818 -89.82356 14.75342 29.29992 0 0 -22.25712 3.867564 13.30854 10.96207
-1871.531 131.2547 1327.738 -5.896638 5.614297 -130.4369 5.293096 2.731184 -0.5613711 -0 12.39883 -0 -10.42253 -6.592771 -2.331526 0.9394402 -8.880868 -3.745427 -0 13.03512 -0 4.137961 -5.941129 13.51768 0.908061 -3.686645 6.387782 0.6044955 15.64797 -6.641788 1.112915 20.16801 2.323613 -0.3565938 -19.90641 4.327084 -3.458675 -29.25141 12.64763 92.97904 13.44997 -14.2036 -0 0 20.70651 -23.90054 14.16076 17.05198 2.076919 -24.50348 -8.384818 -89.82356 14.75342 29.29992 0 0 -22.25712 3.867564 13.30854 10.96207
-1876.445 131.1989 1324.455 -5.869403 5.642773 -130.7146 5.293096 2.731184 -0.5613711 -0 12.39883 -0 -10.42253 -6.592771 -2.331526 0.9394402 -8.880868 -3.745427 -0 13.03512 -0 4.137961 -5.941129 13.51768 0.908061 -3.686645 6.387782 0.6044955 15.64797 -6.641788 1.112915 20.16801 2.323613 -0.3565938 -19.90641 4.327084 -3.458675 -29.25141 12.64763 92.97904 13.44997 -14.2036 -0 0 20.70651 -23.90054 14.16076 17.05198 2.076919 -24.50348 -8.384818 -89.82356 14.75342 29.29992 0 0 -22.25712 3.867564 13.30854 10.96207
-1881.343 131.1431 1321.149 -5.842027 5.671117 -130.9923 5.293096 2.731184 -0.5613711 -0 12.39883 -0 -10.42253 -6.592771 -2.331526 0.9394402 -8.880868 -3.745427 -0 13.03512 -0 4.137961 -5.941129 13.51768 0.908061 -3.686645 6.387782 0.6044955 15.64797 -6.641788 1.112915 20.16801 2.323613 -0.3565938 -19.90641 4.327084 -3.458675 -29.25141 12.64763 92.97904 13.44997 -14.2036 -0 0 20.70651 -23.90054 14.16076 17.05198 2.076919 -24.50348 -8.384818 -89.82356 14.75342 29.29992 0 0 -22.25712 3.867564 13.30854 10.96207
-1886.226 131.0872 1317.819 -5.814513 5.699328 -131.2701 5.293096 2.731184 -0.5613711 -0 12.39883 -0 -10.42253 -6.592771 -2.331526 0.9394402 -8.880868 -3.745427 -0 13.03512 -0 4.137961 -5.941129 13.51768 0.908061 -3.686645 6.387782 0.6044955 15.64797 -6.641788 1.112915 20.16801 2.323613 -0.3565938 -19.90641 4.327084 -3.458675 -29.25141 12.64763 92.97904 13.44997 -14.2036 -0 0 20.70651 -23.90054 14.16076 17.05198 2.076919 -24.50348 -8.384818 -89.82356 14.75342 29.29992 0 0 -22.25712 3.867564 13.30854 10.96207
-1891.092 131.0314 1314.466 -5.78686 5.727406 -131.5478 5.293096 2.731184 -0.5613711 -0 12.39883 -0 -10.42253 -6.592771 -2.331526 0.9394402 -8.880868 -3.745427 -0 13.03512 -0 4.137961 -5.941129 13.51768 0.908061 -3.686645 6.387782 0.6044955 15.64797 -6.641788 1.112915 20.16801 2.323613 -0.3565938 -19.90641 4.327084 -3.458675 -29.25141 12.64763 92.97904 13.44997 -14.2036 -0 0 20.70651 -23.90054 14.16076 17.05198 2.076919 -24.50348 -8.384818 -89.82356 14.75342 29.29992 0 0 -22.25712 3.867564 13.30854 10.96207
-1895.941 130.9756 1311.089 -5.75907 5.755351 -131.8256 5.293096 2.731184 -0.5613711 -0 12.39883 -0 -10.42253 -6.592771 -2.331526 0.9394402 -8.880868 -3.745427 -0 13.03512 -0 4.137961 -5.941129 13.51768 0.908061 -3.686645 6.387782 0.6044955 15.64797 -6.641788 1.112915 20.16801 2.323613 -0.3565938 -19.90641 4.327084 -3.458675 -29.25141 12.64763 92.97904 13.44997 -14.2036 -0 0 20.70651 -23.90054 14.16076 17.05198 2.076919 -24.50348 -8.384818 -89.82356 14.75342 29.29992 0 0 -22.25712 3.867564 13.30854 10.96207
-1900.775 130.9198 1307.688 -5.731142 5.783161 -132.1035 5.293096 2.731184 -0.5613711 -0 12.39883 -0 -10.42253 -6.592771 -2.331526 0.9394402 -8.880868 -3.745427 -0 13.03512 -0 4.137961 -5.941129 13.51768 0.908061 -3.686645 6.387782 0.6044955 15.64797 -6.641788 1.112915 20.16801 2.323613 -0.3565938 -19.90641 4.327084 -3.458675 -29.25141 12.64763 92.97904 13.44997 -14.2036 -0 0 20.70651 -23.90054 14.16076 17.05198 2.076919 -24.50348 -8.384818 -89.82356 14.75342 29.29992 0 0 -22.25712 3.867564 13.30854 10.96207
-1905.591 130.8639 1304.265 -5.703078 5.810836 -132.3813 5.293096 2.731184 -0.5613711 -0 12.39883 -0 -10.42253 -6.592771 -2.331526 0.9394402 -8.880868 -3.745427 -0 13.03512 -0 4.137961 -5.941129 13.51768 0.908061 -3.686645 6.387782 0.6044955 15.64797 -6.641788 1.112915 20.16801 2.323613 -0.3565938 -19.90641 4.327084 -3.458675 -29.25141 12.64763 92.97904 13.44997 -14.2036 -0 0 20.70651 -23.90054 14.16076 17.05198 2.076919 -24.50348 -8.384818 -89.82356 14.75342 29.29992 0 0 -22.25712 3.867564 13.30854 10.96207
-1910.391 130.8081 1300.817 -5.674877 5.838375 -132.6592 5.293096 2.731184 -0.5613711 -0 12.39883 -0 -10.42253 -6.592771 -2.331526 0.9394402 -8.880868 -3.745427 -0 13.03512 -0 4.137961 -5.941129 13.51768 0.908061 -3.686645 6.387782 0.6044955 15.64797 -6.641788 1.112915 20.16801 2.323613 -0.3565938 -19.90641 4.327084 -3.458675 -29.25141 12.64763 92.97904 13.44997 -14.2036 -0 0 20.70651 -23.90054 14.16076 17.05198 2.076919 -24.50348 -8.384818 -89.82356 14.75342 29.29992 0 0 -22.25712 3.867564 13.30854 10.96207
-1915.175 130.7523 1297.347 -5.646542 5.865778 -132.9371 5.293096 2.731184 -0.5613711 -0 12.39883 -0 -10.42253 -6.592771 -2.331526 0.9394402 -8.880868 -3.745427 -0 13.03512 -0 4.137961 -5.941129 13.51768 0.908061 -3.686645 6.387782 0.6044955 15.64797 -6.641788 1.112915 20.16801 2.323613 -0.3565938 -19.90641 4.327084 -3.458675 -29.25141 12.64763 92.97904 13.44997 -14.2036 -0 0 20.70651 -23.90054 14.16076 17.05198 2.076919 -24.50348 -8.384818 -89.82356 14.75342 29.29992 0 0 -22.25712 3.867564 13.30854 10.96207
-1919.941 130.6965 1293.853 -5.618071 5.893044 -133.215 5.293096 2.731184 -0.5613711 -0 12.39883 -0 -10.42253 -6.592771 -2.331526 0.9394402 -8.880868 -3.745427 -0 13.03512 -0 4.137961 -5.941129 13.51768 0.908061 -3.686645 6.387782 0.6044955 15.64797 -6.641788 1.112915 20.16801 2.323613 -0.3565938 -19.90641 4.327084 -3.458675 -29.25141 12.64763 92.97904 13.44997 -14.2036 -0 0 20.70651 -23.90054 14.16076 17.05198 2.076919 -24.50348 -8.384818 -89.82356 14.75342 29.29992 0 0 -22.25712 3.867564 13.30854 10.96207
